<mxfile host="app.diagrams.net" modified="2024-01-27T18:17:43.346Z" agent="Mozilla/5.0 (Macintosh; Intel Mac OS X 10_15_7) AppleWebKit/537.36 (KHTML, like Gecko) Chrome/120.0.0.0 Safari/537.36" etag="fDngX4n9P-m-0xHK84tZ" version="23.0.2" type="device">
  <diagram name="Page-1" id="fqdFriLEPnxdsiwAbwOC">
    <mxGraphModel dx="1272" dy="775" grid="1" gridSize="10" guides="1" tooltips="1" connect="1" arrows="1" fold="1" page="1" pageScale="1" pageWidth="850" pageHeight="1100" math="0" shadow="0">
      <root>
        <mxCell id="0" />
        <mxCell id="1" parent="0" />
        <mxCell id="SSVeID0Cbh7FQBOPwqpE-1" value="Customer" style="whiteSpace=wrap;html=1;align=center;" parent="1" vertex="1">
          <mxGeometry x="153" y="310" width="100" height="40" as="geometry" />
        </mxCell>
        <mxCell id="SSVeID0Cbh7FQBOPwqpE-2" value="Order_t" style="whiteSpace=wrap;html=1;align=center;" parent="1" vertex="1">
          <mxGeometry x="473" y="310" width="100" height="40" as="geometry" />
        </mxCell>
        <mxCell id="SSVeID0Cbh7FQBOPwqpE-3" value="Line_Item" style="whiteSpace=wrap;html=1;align=center;" parent="1" vertex="1">
          <mxGeometry x="633" y="420" width="100" height="40" as="geometry" />
        </mxCell>
        <mxCell id="SSVeID0Cbh7FQBOPwqpE-4" value="Product" style="whiteSpace=wrap;html=1;align=center;" parent="1" vertex="1">
          <mxGeometry x="313" y="420" width="100" height="40" as="geometry" />
        </mxCell>
        <mxCell id="SSVeID0Cbh7FQBOPwqpE-5" value="Contains" style="shape=rhombus;perimeter=rhombusPerimeter;whiteSpace=wrap;html=1;align=center;" parent="1" vertex="1">
          <mxGeometry x="623" y="300" width="120" height="60" as="geometry" />
        </mxCell>
        <mxCell id="SSVeID0Cbh7FQBOPwqpE-6" value="Places" style="shape=rhombus;perimeter=rhombusPerimeter;whiteSpace=wrap;html=1;align=center;" parent="1" vertex="1">
          <mxGeometry x="303" y="300" width="120" height="60" as="geometry" />
        </mxCell>
        <mxCell id="SSVeID0Cbh7FQBOPwqpE-7" value="References" style="shape=rhombus;perimeter=rhombusPerimeter;whiteSpace=wrap;html=1;align=center;" parent="1" vertex="1">
          <mxGeometry x="473" y="410" width="120" height="60" as="geometry" />
        </mxCell>
        <mxCell id="SSVeID0Cbh7FQBOPwqpE-8" value="" style="endArrow=none;html=1;rounded=0;exitX=1;exitY=0.5;exitDx=0;exitDy=0;entryX=0;entryY=0.5;entryDx=0;entryDy=0;" parent="1" source="SSVeID0Cbh7FQBOPwqpE-1" target="SSVeID0Cbh7FQBOPwqpE-6" edge="1">
          <mxGeometry width="50" height="50" relative="1" as="geometry">
            <mxPoint x="433" y="440" as="sourcePoint" />
            <mxPoint x="483" y="390" as="targetPoint" />
          </mxGeometry>
        </mxCell>
        <mxCell id="SSVeID0Cbh7FQBOPwqpE-14" value="1" style="edgeLabel;html=1;align=center;verticalAlign=middle;resizable=0;points=[];" parent="SSVeID0Cbh7FQBOPwqpE-8" vertex="1" connectable="0">
          <mxGeometry x="-0.12" relative="1" as="geometry">
            <mxPoint x="18" y="-10" as="offset" />
          </mxGeometry>
        </mxCell>
        <mxCell id="SSVeID0Cbh7FQBOPwqpE-9" value="N" style="endArrow=none;html=1;rounded=0;exitX=0;exitY=0.5;exitDx=0;exitDy=0;entryX=1;entryY=0.5;entryDx=0;entryDy=0;" parent="1" source="SSVeID0Cbh7FQBOPwqpE-2" target="SSVeID0Cbh7FQBOPwqpE-6" edge="1">
          <mxGeometry x="1" y="-10" width="50" height="50" relative="1" as="geometry">
            <mxPoint x="263" y="340" as="sourcePoint" />
            <mxPoint x="313" y="340" as="targetPoint" />
            <mxPoint as="offset" />
          </mxGeometry>
        </mxCell>
        <mxCell id="SSVeID0Cbh7FQBOPwqpE-10" value="" style="endArrow=none;html=1;rounded=0;entryX=0;entryY=0.5;entryDx=0;entryDy=0;exitX=1;exitY=0.5;exitDx=0;exitDy=0;" parent="1" source="SSVeID0Cbh7FQBOPwqpE-2" target="SSVeID0Cbh7FQBOPwqpE-5" edge="1">
          <mxGeometry width="50" height="50" relative="1" as="geometry">
            <mxPoint x="593" y="350" as="sourcePoint" />
            <mxPoint x="323" y="350" as="targetPoint" />
          </mxGeometry>
        </mxCell>
        <mxCell id="SSVeID0Cbh7FQBOPwqpE-16" value="1" style="edgeLabel;html=1;align=center;verticalAlign=middle;resizable=0;points=[];" parent="SSVeID0Cbh7FQBOPwqpE-10" vertex="1" connectable="0">
          <mxGeometry x="0.48" relative="1" as="geometry">
            <mxPoint x="13" y="-10" as="offset" />
          </mxGeometry>
        </mxCell>
        <mxCell id="SSVeID0Cbh7FQBOPwqpE-11" value="" style="endArrow=none;html=1;rounded=0;exitX=0.5;exitY=0;exitDx=0;exitDy=0;entryX=0.5;entryY=1;entryDx=0;entryDy=0;" parent="1" source="SSVeID0Cbh7FQBOPwqpE-3" target="SSVeID0Cbh7FQBOPwqpE-5" edge="1">
          <mxGeometry width="50" height="50" relative="1" as="geometry">
            <mxPoint x="283" y="360" as="sourcePoint" />
            <mxPoint x="333" y="360" as="targetPoint" />
          </mxGeometry>
        </mxCell>
        <mxCell id="SSVeID0Cbh7FQBOPwqpE-17" value="N" style="edgeLabel;html=1;align=center;verticalAlign=middle;resizable=0;points=[];" parent="SSVeID0Cbh7FQBOPwqpE-11" vertex="1" connectable="0">
          <mxGeometry x="0.2333" relative="1" as="geometry">
            <mxPoint x="10" y="-13" as="offset" />
          </mxGeometry>
        </mxCell>
        <mxCell id="SSVeID0Cbh7FQBOPwqpE-12" value="" style="endArrow=none;html=1;rounded=0;exitX=1;exitY=0.5;exitDx=0;exitDy=0;entryX=0;entryY=0.5;entryDx=0;entryDy=0;" parent="1" source="SSVeID0Cbh7FQBOPwqpE-7" target="SSVeID0Cbh7FQBOPwqpE-3" edge="1">
          <mxGeometry width="50" height="50" relative="1" as="geometry">
            <mxPoint x="293" y="370" as="sourcePoint" />
            <mxPoint x="343" y="370" as="targetPoint" />
          </mxGeometry>
        </mxCell>
        <mxCell id="SSVeID0Cbh7FQBOPwqpE-18" value="N" style="edgeLabel;html=1;align=center;verticalAlign=middle;resizable=0;points=[];" parent="SSVeID0Cbh7FQBOPwqpE-12" vertex="1" connectable="0">
          <mxGeometry x="-0.15" relative="1" as="geometry">
            <mxPoint x="-17" y="-10" as="offset" />
          </mxGeometry>
        </mxCell>
        <mxCell id="SSVeID0Cbh7FQBOPwqpE-13" value="" style="endArrow=none;html=1;rounded=0;exitX=1;exitY=0.5;exitDx=0;exitDy=0;entryX=0;entryY=0.5;entryDx=0;entryDy=0;" parent="1" source="SSVeID0Cbh7FQBOPwqpE-4" target="SSVeID0Cbh7FQBOPwqpE-7" edge="1">
          <mxGeometry width="50" height="50" relative="1" as="geometry">
            <mxPoint x="303" y="380" as="sourcePoint" />
            <mxPoint x="353" y="380" as="targetPoint" />
          </mxGeometry>
        </mxCell>
        <mxCell id="SSVeID0Cbh7FQBOPwqpE-19" value="1" style="edgeLabel;html=1;align=center;verticalAlign=middle;resizable=0;points=[];" parent="SSVeID0Cbh7FQBOPwqpE-13" vertex="1" connectable="0">
          <mxGeometry x="0.4333" relative="1" as="geometry">
            <mxPoint x="7" y="-10" as="offset" />
          </mxGeometry>
        </mxCell>
        <mxCell id="SSVeID0Cbh7FQBOPwqpE-21" value="&lt;u&gt;C#&lt;/u&gt;" style="ellipse;whiteSpace=wrap;html=1;align=center;" parent="1" vertex="1">
          <mxGeometry x="43" y="230" width="100" height="40" as="geometry" />
        </mxCell>
        <mxCell id="SSVeID0Cbh7FQBOPwqpE-22" value="Address" style="ellipse;whiteSpace=wrap;html=1;align=center;" parent="1" vertex="1">
          <mxGeometry x="23" y="310" width="100" height="40" as="geometry" />
        </mxCell>
        <mxCell id="SSVeID0Cbh7FQBOPwqpE-23" value="Name" style="ellipse;whiteSpace=wrap;html=1;align=center;" parent="1" vertex="1">
          <mxGeometry x="153" y="210" width="100" height="40" as="geometry" />
        </mxCell>
        <mxCell id="SSVeID0Cbh7FQBOPwqpE-24" value="" style="endArrow=none;html=1;rounded=0;entryX=1;entryY=0.5;entryDx=0;entryDy=0;exitX=0;exitY=0.5;exitDx=0;exitDy=0;" parent="1" source="SSVeID0Cbh7FQBOPwqpE-1" target="SSVeID0Cbh7FQBOPwqpE-22" edge="1">
          <mxGeometry width="50" height="50" relative="1" as="geometry">
            <mxPoint x="433" y="440" as="sourcePoint" />
            <mxPoint x="483" y="390" as="targetPoint" />
          </mxGeometry>
        </mxCell>
        <mxCell id="SSVeID0Cbh7FQBOPwqpE-26" value="" style="endArrow=none;html=1;rounded=0;entryX=0;entryY=0;entryDx=0;entryDy=0;exitX=1;exitY=1;exitDx=0;exitDy=0;" parent="1" source="SSVeID0Cbh7FQBOPwqpE-21" target="SSVeID0Cbh7FQBOPwqpE-1" edge="1">
          <mxGeometry width="50" height="50" relative="1" as="geometry">
            <mxPoint x="163" y="340" as="sourcePoint" />
            <mxPoint x="133" y="340" as="targetPoint" />
          </mxGeometry>
        </mxCell>
        <mxCell id="SSVeID0Cbh7FQBOPwqpE-27" value="" style="endArrow=none;html=1;rounded=0;entryX=0.5;entryY=1;entryDx=0;entryDy=0;exitX=0.5;exitY=0;exitDx=0;exitDy=0;" parent="1" source="SSVeID0Cbh7FQBOPwqpE-1" target="SSVeID0Cbh7FQBOPwqpE-23" edge="1">
          <mxGeometry width="50" height="50" relative="1" as="geometry">
            <mxPoint x="173" y="350" as="sourcePoint" />
            <mxPoint x="143" y="350" as="targetPoint" />
          </mxGeometry>
        </mxCell>
        <mxCell id="SSVeID0Cbh7FQBOPwqpE-28" value="O_Date" style="ellipse;whiteSpace=wrap;html=1;align=center;" parent="1" vertex="1">
          <mxGeometry x="363" y="220" width="100" height="40" as="geometry" />
        </mxCell>
        <mxCell id="SSVeID0Cbh7FQBOPwqpE-29" value="&lt;u&gt;O#&lt;/u&gt;" style="ellipse;whiteSpace=wrap;html=1;align=center;" parent="1" vertex="1">
          <mxGeometry x="473" y="220" width="100" height="40" as="geometry" />
        </mxCell>
        <mxCell id="SSVeID0Cbh7FQBOPwqpE-30" value="Total_Price" style="ellipse;whiteSpace=wrap;html=1;align=center;" parent="1" vertex="1">
          <mxGeometry x="583" y="220" width="100" height="40" as="geometry" />
        </mxCell>
        <mxCell id="SSVeID0Cbh7FQBOPwqpE-31" value="" style="endArrow=none;html=1;rounded=0;entryX=0.5;entryY=1;entryDx=0;entryDy=0;exitX=0.5;exitY=0;exitDx=0;exitDy=0;" parent="1" source="SSVeID0Cbh7FQBOPwqpE-2" target="SSVeID0Cbh7FQBOPwqpE-29" edge="1">
          <mxGeometry width="50" height="50" relative="1" as="geometry">
            <mxPoint x="213" y="320" as="sourcePoint" />
            <mxPoint x="213" y="260" as="targetPoint" />
          </mxGeometry>
        </mxCell>
        <mxCell id="SSVeID0Cbh7FQBOPwqpE-32" value="" style="endArrow=none;html=1;rounded=0;entryX=0;entryY=1;entryDx=0;entryDy=0;exitX=0.75;exitY=0;exitDx=0;exitDy=0;" parent="1" source="SSVeID0Cbh7FQBOPwqpE-2" target="SSVeID0Cbh7FQBOPwqpE-30" edge="1">
          <mxGeometry width="50" height="50" relative="1" as="geometry">
            <mxPoint x="533" y="320" as="sourcePoint" />
            <mxPoint x="533" y="270" as="targetPoint" />
          </mxGeometry>
        </mxCell>
        <mxCell id="SSVeID0Cbh7FQBOPwqpE-33" value="" style="endArrow=none;html=1;rounded=0;entryX=1;entryY=1;entryDx=0;entryDy=0;exitX=0.25;exitY=0;exitDx=0;exitDy=0;" parent="1" source="SSVeID0Cbh7FQBOPwqpE-2" target="SSVeID0Cbh7FQBOPwqpE-28" edge="1">
          <mxGeometry width="50" height="50" relative="1" as="geometry">
            <mxPoint x="543" y="330" as="sourcePoint" />
            <mxPoint x="543" y="280" as="targetPoint" />
          </mxGeometry>
        </mxCell>
        <mxCell id="SSVeID0Cbh7FQBOPwqpE-34" value="&lt;u&gt;I#&lt;/u&gt;" style="ellipse;whiteSpace=wrap;html=1;align=center;" parent="1" vertex="1">
          <mxGeometry x="533" y="490" width="100" height="40" as="geometry" />
        </mxCell>
        <mxCell id="SSVeID0Cbh7FQBOPwqpE-35" value="Qty" style="ellipse;whiteSpace=wrap;html=1;align=center;" parent="1" vertex="1">
          <mxGeometry x="728" y="490" width="100" height="40" as="geometry" />
        </mxCell>
        <mxCell id="SSVeID0Cbh7FQBOPwqpE-36" value="" style="endArrow=none;html=1;rounded=0;entryX=0;entryY=1;entryDx=0;entryDy=0;exitX=1;exitY=0;exitDx=0;exitDy=0;" parent="1" source="SSVeID0Cbh7FQBOPwqpE-34" target="SSVeID0Cbh7FQBOPwqpE-3" edge="1">
          <mxGeometry width="50" height="50" relative="1" as="geometry">
            <mxPoint x="558" y="320" as="sourcePoint" />
            <mxPoint x="608" y="264" as="targetPoint" />
          </mxGeometry>
        </mxCell>
        <mxCell id="SSVeID0Cbh7FQBOPwqpE-37" value="" style="endArrow=none;html=1;rounded=0;entryX=1;entryY=1;entryDx=0;entryDy=0;exitX=0;exitY=0;exitDx=0;exitDy=0;" parent="1" source="SSVeID0Cbh7FQBOPwqpE-35" target="SSVeID0Cbh7FQBOPwqpE-3" edge="1">
          <mxGeometry width="50" height="50" relative="1" as="geometry">
            <mxPoint x="568" y="330" as="sourcePoint" />
            <mxPoint x="618" y="274" as="targetPoint" />
          </mxGeometry>
        </mxCell>
        <mxCell id="SSVeID0Cbh7FQBOPwqpE-38" value="&lt;u&gt;P#&lt;/u&gt;" style="ellipse;whiteSpace=wrap;html=1;align=center;" parent="1" vertex="1">
          <mxGeometry x="163" y="420" width="100" height="40" as="geometry" />
        </mxCell>
        <mxCell id="SSVeID0Cbh7FQBOPwqpE-39" value="Price" style="ellipse;whiteSpace=wrap;html=1;align=center;" parent="1" vertex="1">
          <mxGeometry x="383" y="490" width="100" height="40" as="geometry" />
        </mxCell>
        <mxCell id="SSVeID0Cbh7FQBOPwqpE-40" value="Name" style="ellipse;whiteSpace=wrap;html=1;align=center;" parent="1" vertex="1">
          <mxGeometry x="243" y="490" width="100" height="40" as="geometry" />
        </mxCell>
        <mxCell id="SSVeID0Cbh7FQBOPwqpE-41" value="" style="endArrow=none;html=1;rounded=0;entryX=0.75;entryY=1;entryDx=0;entryDy=0;exitX=0;exitY=0;exitDx=0;exitDy=0;" parent="1" source="SSVeID0Cbh7FQBOPwqpE-39" target="SSVeID0Cbh7FQBOPwqpE-4" edge="1">
          <mxGeometry width="50" height="50" relative="1" as="geometry">
            <mxPoint x="658" y="506" as="sourcePoint" />
            <mxPoint x="668" y="470" as="targetPoint" />
          </mxGeometry>
        </mxCell>
        <mxCell id="SSVeID0Cbh7FQBOPwqpE-42" value="" style="endArrow=none;html=1;rounded=0;entryX=0.25;entryY=1;entryDx=0;entryDy=0;exitX=1;exitY=0;exitDx=0;exitDy=0;" parent="1" source="SSVeID0Cbh7FQBOPwqpE-40" target="SSVeID0Cbh7FQBOPwqpE-4" edge="1">
          <mxGeometry width="50" height="50" relative="1" as="geometry">
            <mxPoint x="668" y="516" as="sourcePoint" />
            <mxPoint x="678" y="480" as="targetPoint" />
          </mxGeometry>
        </mxCell>
        <mxCell id="SSVeID0Cbh7FQBOPwqpE-43" value="" style="endArrow=none;html=1;rounded=0;entryX=1;entryY=0.5;entryDx=0;entryDy=0;exitX=0;exitY=0.5;exitDx=0;exitDy=0;" parent="1" source="SSVeID0Cbh7FQBOPwqpE-4" target="SSVeID0Cbh7FQBOPwqpE-38" edge="1">
          <mxGeometry width="50" height="50" relative="1" as="geometry">
            <mxPoint x="678" y="526" as="sourcePoint" />
            <mxPoint x="688" y="490" as="targetPoint" />
          </mxGeometry>
        </mxCell>
        <mxCell id="jaKxIL4FNyQoTEmiXDfE-1" value="Customer_id" style="ellipse;whiteSpace=wrap;html=1;align=center;" parent="1" vertex="1">
          <mxGeometry x="688" y="250" width="100" height="40" as="geometry" />
        </mxCell>
        <mxCell id="jaKxIL4FNyQoTEmiXDfE-2" value="" style="endArrow=none;html=1;rounded=0;entryX=0;entryY=0.5;entryDx=0;entryDy=0;exitX=1;exitY=0;exitDx=0;exitDy=0;" parent="1" source="SSVeID0Cbh7FQBOPwqpE-2" target="jaKxIL4FNyQoTEmiXDfE-1" edge="1">
          <mxGeometry width="50" height="50" relative="1" as="geometry">
            <mxPoint x="558" y="320" as="sourcePoint" />
            <mxPoint x="608" y="264" as="targetPoint" />
          </mxGeometry>
        </mxCell>
        <mxCell id="jaKxIL4FNyQoTEmiXDfE-5" value="order_id" style="ellipse;whiteSpace=wrap;html=1;align=center;" parent="1" vertex="1">
          <mxGeometry x="698" y="540" width="100" height="40" as="geometry" />
        </mxCell>
        <mxCell id="jaKxIL4FNyQoTEmiXDfE-6" value="product_id" style="ellipse;whiteSpace=wrap;html=1;align=center;" parent="1" vertex="1">
          <mxGeometry x="573" y="540" width="100" height="40" as="geometry" />
        </mxCell>
        <mxCell id="jaKxIL4FNyQoTEmiXDfE-8" value="" style="endArrow=none;html=1;rounded=0;entryX=0.25;entryY=1;entryDx=0;entryDy=0;exitX=1;exitY=0;exitDx=0;exitDy=0;" parent="1" source="jaKxIL4FNyQoTEmiXDfE-6" target="SSVeID0Cbh7FQBOPwqpE-3" edge="1">
          <mxGeometry width="50" height="50" relative="1" as="geometry">
            <mxPoint x="628" y="506" as="sourcePoint" />
            <mxPoint x="643" y="470" as="targetPoint" />
          </mxGeometry>
        </mxCell>
        <mxCell id="jaKxIL4FNyQoTEmiXDfE-9" value="" style="endArrow=none;html=1;rounded=0;entryX=0.75;entryY=1;entryDx=0;entryDy=0;exitX=0;exitY=0;exitDx=0;exitDy=0;" parent="1" source="jaKxIL4FNyQoTEmiXDfE-5" target="SSVeID0Cbh7FQBOPwqpE-3" edge="1">
          <mxGeometry width="50" height="50" relative="1" as="geometry">
            <mxPoint x="638" y="516" as="sourcePoint" />
            <mxPoint x="653" y="480" as="targetPoint" />
          </mxGeometry>
        </mxCell>
        <mxCell id="A_3C8tdEs4DEQTDY05mD-14" value="Customer" style="shape=table;startSize=30;container=1;collapsible=0;childLayout=tableLayout;strokeColor=default;fontSize=16;" vertex="1" parent="1">
          <mxGeometry x="580" y="750" width="195" height="70" as="geometry" />
        </mxCell>
        <mxCell id="A_3C8tdEs4DEQTDY05mD-15" value="" style="shape=tableRow;horizontal=0;startSize=0;swimlaneHead=0;swimlaneBody=0;strokeColor=inherit;top=0;left=0;bottom=0;right=0;collapsible=0;dropTarget=0;fillColor=none;points=[[0,0.5],[1,0.5]];portConstraint=eastwest;fontSize=16;" vertex="1" parent="A_3C8tdEs4DEQTDY05mD-14">
          <mxGeometry y="30" width="195" height="40" as="geometry" />
        </mxCell>
        <mxCell id="A_3C8tdEs4DEQTDY05mD-16" value="C#" style="shape=partialRectangle;html=1;whiteSpace=wrap;connectable=0;strokeColor=inherit;overflow=hidden;fillColor=none;top=0;left=0;bottom=0;right=0;pointerEvents=1;fontSize=16;" vertex="1" parent="A_3C8tdEs4DEQTDY05mD-15">
          <mxGeometry width="65" height="40" as="geometry">
            <mxRectangle width="65" height="40" as="alternateBounds" />
          </mxGeometry>
        </mxCell>
        <mxCell id="A_3C8tdEs4DEQTDY05mD-17" value="name" style="shape=partialRectangle;html=1;whiteSpace=wrap;connectable=0;strokeColor=inherit;overflow=hidden;fillColor=none;top=0;left=0;bottom=0;right=0;pointerEvents=1;fontSize=16;" vertex="1" parent="A_3C8tdEs4DEQTDY05mD-15">
          <mxGeometry x="65" width="65" height="40" as="geometry">
            <mxRectangle width="65" height="40" as="alternateBounds" />
          </mxGeometry>
        </mxCell>
        <mxCell id="A_3C8tdEs4DEQTDY05mD-18" value="address" style="shape=partialRectangle;html=1;whiteSpace=wrap;connectable=0;strokeColor=inherit;overflow=hidden;fillColor=none;top=0;left=0;bottom=0;right=0;pointerEvents=1;fontSize=16;" vertex="1" parent="A_3C8tdEs4DEQTDY05mD-15">
          <mxGeometry x="130" width="65" height="40" as="geometry">
            <mxRectangle width="65" height="40" as="alternateBounds" />
          </mxGeometry>
        </mxCell>
        <mxCell id="A_3C8tdEs4DEQTDY05mD-33" value="Product" style="shape=table;startSize=30;container=1;collapsible=0;childLayout=tableLayout;strokeColor=default;fontSize=16;" vertex="1" parent="1">
          <mxGeometry x="215" y="870" width="180" height="70" as="geometry" />
        </mxCell>
        <mxCell id="A_3C8tdEs4DEQTDY05mD-34" value="" style="shape=tableRow;horizontal=0;startSize=0;swimlaneHead=0;swimlaneBody=0;strokeColor=inherit;top=0;left=0;bottom=0;right=0;collapsible=0;dropTarget=0;fillColor=none;points=[[0,0.5],[1,0.5]];portConstraint=eastwest;fontSize=16;" vertex="1" parent="A_3C8tdEs4DEQTDY05mD-33">
          <mxGeometry y="30" width="180" height="40" as="geometry" />
        </mxCell>
        <mxCell id="A_3C8tdEs4DEQTDY05mD-35" value="P#" style="shape=partialRectangle;html=1;whiteSpace=wrap;connectable=0;strokeColor=inherit;overflow=hidden;fillColor=none;top=0;left=0;bottom=0;right=0;pointerEvents=1;fontSize=16;" vertex="1" parent="A_3C8tdEs4DEQTDY05mD-34">
          <mxGeometry width="60" height="40" as="geometry">
            <mxRectangle width="60" height="40" as="alternateBounds" />
          </mxGeometry>
        </mxCell>
        <mxCell id="A_3C8tdEs4DEQTDY05mD-36" value="name" style="shape=partialRectangle;html=1;whiteSpace=wrap;connectable=0;strokeColor=inherit;overflow=hidden;fillColor=none;top=0;left=0;bottom=0;right=0;pointerEvents=1;fontSize=16;" vertex="1" parent="A_3C8tdEs4DEQTDY05mD-34">
          <mxGeometry x="60" width="60" height="40" as="geometry">
            <mxRectangle width="60" height="40" as="alternateBounds" />
          </mxGeometry>
        </mxCell>
        <mxCell id="A_3C8tdEs4DEQTDY05mD-37" value="price" style="shape=partialRectangle;html=1;whiteSpace=wrap;connectable=0;strokeColor=inherit;overflow=hidden;fillColor=none;top=0;left=0;bottom=0;right=0;pointerEvents=1;fontSize=16;" vertex="1" parent="A_3C8tdEs4DEQTDY05mD-34">
          <mxGeometry x="120" width="60" height="40" as="geometry">
            <mxRectangle width="60" height="40" as="alternateBounds" />
          </mxGeometry>
        </mxCell>
        <mxCell id="A_3C8tdEs4DEQTDY05mD-70" value="" style="group" vertex="1" connectable="0" parent="1">
          <mxGeometry x="390" y="630" width="290" height="70" as="geometry" />
        </mxCell>
        <mxCell id="A_3C8tdEs4DEQTDY05mD-52" value="" style="rounded=0;whiteSpace=wrap;html=1;" vertex="1" parent="A_3C8tdEs4DEQTDY05mD-70">
          <mxGeometry width="290" height="70" as="geometry" />
        </mxCell>
        <mxCell id="A_3C8tdEs4DEQTDY05mD-53" value="" style="endArrow=none;html=1;rounded=0;exitX=-0.009;exitY=0.429;exitDx=0;exitDy=0;exitPerimeter=0;entryX=1.012;entryY=0.429;entryDx=0;entryDy=0;entryPerimeter=0;" edge="1" parent="A_3C8tdEs4DEQTDY05mD-70" source="A_3C8tdEs4DEQTDY05mD-52" target="A_3C8tdEs4DEQTDY05mD-52">
          <mxGeometry width="50" height="50" relative="1" as="geometry">
            <mxPoint x="110" y="210" as="sourcePoint" />
            <mxPoint x="240" y="30" as="targetPoint" />
          </mxGeometry>
        </mxCell>
        <mxCell id="A_3C8tdEs4DEQTDY05mD-54" value="" style="endArrow=none;html=1;rounded=0;" edge="1" parent="A_3C8tdEs4DEQTDY05mD-70">
          <mxGeometry width="50" height="50" relative="1" as="geometry">
            <mxPoint x="50" y="70" as="sourcePoint" />
            <mxPoint x="50" y="30" as="targetPoint" />
          </mxGeometry>
        </mxCell>
        <mxCell id="A_3C8tdEs4DEQTDY05mD-56" value="" style="endArrow=none;html=1;rounded=0;exitX=0.464;exitY=0.989;exitDx=0;exitDy=0;exitPerimeter=0;entryX=0.792;entryY=1.086;entryDx=0;entryDy=0;entryPerimeter=0;" edge="1" parent="A_3C8tdEs4DEQTDY05mD-70" source="A_3C8tdEs4DEQTDY05mD-52" target="A_3C8tdEs4DEQTDY05mD-58">
          <mxGeometry width="50" height="50" relative="1" as="geometry">
            <mxPoint x="60" y="80" as="sourcePoint" />
            <mxPoint x="110" y="30" as="targetPoint" />
          </mxGeometry>
        </mxCell>
        <mxCell id="A_3C8tdEs4DEQTDY05mD-57" value="" style="endArrow=none;html=1;rounded=0;exitX=0.719;exitY=1.032;exitDx=0;exitDy=0;exitPerimeter=0;" edge="1" parent="A_3C8tdEs4DEQTDY05mD-70" source="A_3C8tdEs4DEQTDY05mD-52">
          <mxGeometry width="50" height="50" relative="1" as="geometry">
            <mxPoint x="70" y="90" as="sourcePoint" />
            <mxPoint x="210" y="30" as="targetPoint" />
          </mxGeometry>
        </mxCell>
        <mxCell id="A_3C8tdEs4DEQTDY05mD-58" value="&lt;font style=&quot;font-size: 16px;&quot;&gt;Order_t&lt;/font&gt;" style="text;html=1;align=center;verticalAlign=middle;resizable=0;points=[];autosize=1;strokeColor=none;fillColor=none;" vertex="1" parent="A_3C8tdEs4DEQTDY05mD-70">
          <mxGeometry x="70" width="80" height="30" as="geometry" />
        </mxCell>
        <mxCell id="A_3C8tdEs4DEQTDY05mD-66" value="O#" style="text;html=1;align=center;verticalAlign=middle;resizable=0;points=[];autosize=1;strokeColor=none;fillColor=none;" vertex="1" parent="A_3C8tdEs4DEQTDY05mD-70">
          <mxGeometry y="30" width="40" height="30" as="geometry" />
        </mxCell>
        <mxCell id="A_3C8tdEs4DEQTDY05mD-67" value="customer_id" style="text;html=1;align=center;verticalAlign=middle;resizable=0;points=[];autosize=1;strokeColor=none;fillColor=none;" vertex="1" parent="A_3C8tdEs4DEQTDY05mD-70">
          <mxGeometry x="50" y="40" width="90" height="30" as="geometry" />
        </mxCell>
        <mxCell id="A_3C8tdEs4DEQTDY05mD-68" value="o_date" style="text;html=1;align=center;verticalAlign=middle;resizable=0;points=[];autosize=1;strokeColor=none;fillColor=none;" vertex="1" parent="A_3C8tdEs4DEQTDY05mD-70">
          <mxGeometry x="140" y="40" width="60" height="30" as="geometry" />
        </mxCell>
        <mxCell id="A_3C8tdEs4DEQTDY05mD-69" value="total_price" style="text;html=1;align=center;verticalAlign=middle;resizable=0;points=[];autosize=1;strokeColor=none;fillColor=none;" vertex="1" parent="A_3C8tdEs4DEQTDY05mD-70">
          <mxGeometry x="210" y="40" width="80" height="30" as="geometry" />
        </mxCell>
        <mxCell id="A_3C8tdEs4DEQTDY05mD-72" value="" style="group" vertex="1" connectable="0" parent="1">
          <mxGeometry x="75" y="750" width="290" height="70" as="geometry" />
        </mxCell>
        <mxCell id="A_3C8tdEs4DEQTDY05mD-73" value="" style="rounded=0;whiteSpace=wrap;html=1;" vertex="1" parent="A_3C8tdEs4DEQTDY05mD-72">
          <mxGeometry width="290" height="70" as="geometry" />
        </mxCell>
        <mxCell id="A_3C8tdEs4DEQTDY05mD-74" value="" style="endArrow=none;html=1;rounded=0;exitX=-0.009;exitY=0.429;exitDx=0;exitDy=0;exitPerimeter=0;entryX=1.012;entryY=0.429;entryDx=0;entryDy=0;entryPerimeter=0;" edge="1" parent="A_3C8tdEs4DEQTDY05mD-72" source="A_3C8tdEs4DEQTDY05mD-73" target="A_3C8tdEs4DEQTDY05mD-73">
          <mxGeometry width="50" height="50" relative="1" as="geometry">
            <mxPoint x="110" y="210" as="sourcePoint" />
            <mxPoint x="240" y="30" as="targetPoint" />
          </mxGeometry>
        </mxCell>
        <mxCell id="A_3C8tdEs4DEQTDY05mD-75" value="" style="endArrow=none;html=1;rounded=0;" edge="1" parent="A_3C8tdEs4DEQTDY05mD-72">
          <mxGeometry width="50" height="50" relative="1" as="geometry">
            <mxPoint x="50" y="70" as="sourcePoint" />
            <mxPoint x="50" y="30" as="targetPoint" />
          </mxGeometry>
        </mxCell>
        <mxCell id="A_3C8tdEs4DEQTDY05mD-76" value="" style="endArrow=none;html=1;rounded=0;exitX=0.464;exitY=0.989;exitDx=0;exitDy=0;exitPerimeter=0;entryX=0.792;entryY=1.086;entryDx=0;entryDy=0;entryPerimeter=0;" edge="1" parent="A_3C8tdEs4DEQTDY05mD-72" source="A_3C8tdEs4DEQTDY05mD-73" target="A_3C8tdEs4DEQTDY05mD-78">
          <mxGeometry width="50" height="50" relative="1" as="geometry">
            <mxPoint x="60" y="80" as="sourcePoint" />
            <mxPoint x="110" y="30" as="targetPoint" />
          </mxGeometry>
        </mxCell>
        <mxCell id="A_3C8tdEs4DEQTDY05mD-77" value="" style="endArrow=none;html=1;rounded=0;exitX=0.719;exitY=1.032;exitDx=0;exitDy=0;exitPerimeter=0;" edge="1" parent="A_3C8tdEs4DEQTDY05mD-72" source="A_3C8tdEs4DEQTDY05mD-73">
          <mxGeometry width="50" height="50" relative="1" as="geometry">
            <mxPoint x="70" y="90" as="sourcePoint" />
            <mxPoint x="210" y="30" as="targetPoint" />
          </mxGeometry>
        </mxCell>
        <mxCell id="A_3C8tdEs4DEQTDY05mD-78" value="&lt;font style=&quot;font-size: 16px;&quot;&gt;Line_Item&lt;/font&gt;" style="text;html=1;align=center;verticalAlign=middle;resizable=0;points=[];autosize=1;strokeColor=none;fillColor=none;" vertex="1" parent="A_3C8tdEs4DEQTDY05mD-72">
          <mxGeometry x="65" width="90" height="30" as="geometry" />
        </mxCell>
        <mxCell id="A_3C8tdEs4DEQTDY05mD-79" value="I#" style="text;html=1;align=center;verticalAlign=middle;resizable=0;points=[];autosize=1;strokeColor=none;fillColor=none;" vertex="1" parent="A_3C8tdEs4DEQTDY05mD-72">
          <mxGeometry x="5" y="30" width="30" height="30" as="geometry" />
        </mxCell>
        <mxCell id="A_3C8tdEs4DEQTDY05mD-80" value="product_id" style="text;html=1;align=center;verticalAlign=middle;resizable=0;points=[];autosize=1;strokeColor=none;fillColor=none;" vertex="1" parent="A_3C8tdEs4DEQTDY05mD-72">
          <mxGeometry x="55" y="40" width="80" height="30" as="geometry" />
        </mxCell>
        <mxCell id="A_3C8tdEs4DEQTDY05mD-81" value="order_id" style="text;html=1;align=center;verticalAlign=middle;resizable=0;points=[];autosize=1;strokeColor=none;fillColor=none;" vertex="1" parent="A_3C8tdEs4DEQTDY05mD-72">
          <mxGeometry x="135" y="40" width="70" height="30" as="geometry" />
        </mxCell>
        <mxCell id="A_3C8tdEs4DEQTDY05mD-82" value="Qty" style="text;html=1;align=center;verticalAlign=middle;resizable=0;points=[];autosize=1;strokeColor=none;fillColor=none;" vertex="1" parent="A_3C8tdEs4DEQTDY05mD-72">
          <mxGeometry x="230" y="40" width="40" height="30" as="geometry" />
        </mxCell>
        <mxCell id="A_3C8tdEs4DEQTDY05mD-83" value="" style="endArrow=classic;html=1;rounded=0;entryX=0;entryY=0.5;entryDx=0;entryDy=0;" edge="1" parent="1" target="A_3C8tdEs4DEQTDY05mD-34">
          <mxGeometry width="50" height="50" relative="1" as="geometry">
            <mxPoint x="170" y="920" as="sourcePoint" />
            <mxPoint x="350" y="710" as="targetPoint" />
          </mxGeometry>
        </mxCell>
        <mxCell id="A_3C8tdEs4DEQTDY05mD-84" value="" style="endArrow=none;html=1;rounded=0;entryX=0.517;entryY=1.092;entryDx=0;entryDy=0;entryPerimeter=0;" edge="1" parent="1" target="A_3C8tdEs4DEQTDY05mD-80">
          <mxGeometry width="50" height="50" relative="1" as="geometry">
            <mxPoint x="170" y="920" as="sourcePoint" />
            <mxPoint x="350" y="710" as="targetPoint" />
          </mxGeometry>
        </mxCell>
        <mxCell id="A_3C8tdEs4DEQTDY05mD-85" value="" style="endArrow=none;html=1;rounded=0;entryX=0.536;entryY=0.991;entryDx=0;entryDy=0;entryPerimeter=0;" edge="1" parent="1" target="A_3C8tdEs4DEQTDY05mD-81">
          <mxGeometry width="50" height="50" relative="1" as="geometry">
            <mxPoint x="248" y="850" as="sourcePoint" />
            <mxPoint x="181" y="833" as="targetPoint" />
          </mxGeometry>
        </mxCell>
        <mxCell id="A_3C8tdEs4DEQTDY05mD-86" value="" style="endArrow=none;html=1;rounded=0;" edge="1" parent="1">
          <mxGeometry width="50" height="50" relative="1" as="geometry">
            <mxPoint x="410" y="850" as="sourcePoint" />
            <mxPoint x="250" y="850" as="targetPoint" />
          </mxGeometry>
        </mxCell>
        <mxCell id="A_3C8tdEs4DEQTDY05mD-87" value="" style="endArrow=classic;html=1;rounded=0;entryX=0.076;entryY=1.048;entryDx=0;entryDy=0;entryPerimeter=0;" edge="1" parent="1" target="A_3C8tdEs4DEQTDY05mD-52">
          <mxGeometry width="50" height="50" relative="1" as="geometry">
            <mxPoint x="410" y="850" as="sourcePoint" />
            <mxPoint x="225" y="930" as="targetPoint" />
          </mxGeometry>
        </mxCell>
        <mxCell id="A_3C8tdEs4DEQTDY05mD-88" value="" style="endArrow=none;html=1;rounded=0;exitX=0.478;exitY=1.112;exitDx=0;exitDy=0;exitPerimeter=0;" edge="1" parent="1" source="A_3C8tdEs4DEQTDY05mD-67">
          <mxGeometry width="50" height="50" relative="1" as="geometry">
            <mxPoint x="420" y="860" as="sourcePoint" />
            <mxPoint x="483" y="800" as="targetPoint" />
          </mxGeometry>
        </mxCell>
        <mxCell id="A_3C8tdEs4DEQTDY05mD-89" value="" style="endArrow=classic;html=1;rounded=0;entryX=0;entryY=0.5;entryDx=0;entryDy=0;" edge="1" parent="1" target="A_3C8tdEs4DEQTDY05mD-15">
          <mxGeometry width="50" height="50" relative="1" as="geometry">
            <mxPoint x="480" y="800" as="sourcePoint" />
            <mxPoint x="225" y="930" as="targetPoint" />
          </mxGeometry>
        </mxCell>
      </root>
    </mxGraphModel>
  </diagram>
</mxfile>
